<?xml version="1.0" encoding="UTF-8"?>
<svg id="_レイヤー_2" data-name="レイヤー 2" xmlns="http://www.w3.org/2000/svg" viewBox="0 0 363.38 237.64">
  <defs>
    <style>
      .cls-1 {
        fill: #83c024;
      }

      .cls-1, .cls-2 {
        stroke-width: 0px;
      }

      .cls-3 {
        fill: none;
        stroke: #462d25;
        stroke-linecap: square;
        stroke-linejoin: bevel;
        stroke-width: 7.5px;
      }

      .cls-2 {
        fill: #f49d22;
      }
    </style>
  </defs>
  <g id="_レイヤー_1-2" data-name="レイヤー 1">
    <g>
      <g>
        <path class="cls-3" d="M236.7,233.89v-18.09c0-13.17-10.67-23.84-23.84-23.84h0c-13.17,0-23.84,10.67-23.84,23.84v18.09c11.55-11.55,36.37-11.31,47.68,0Z"/>
        <path class="cls-3" d="M119.6,233.89v-18.09c0-13.17-10.67-23.84-23.84-23.84h0c-13.17,0-23.84,10.67-23.84,23.84v18.09c11.55-11.55,36.37-11.31,47.68,0Z"/>
        <path class="cls-3" d="M359.63,233.98v-18.09c0-13.17-10.67-23.84-23.84-23.84h0c-13.17,0-23.84,10.67-23.84,23.84v18.09c11.55-11.55,36.37-11.31,47.68,0Z"/>
        <path class="cls-3" d="M268.42,191.87h10.36c5.76,0,10.43,4.67,10.43,10.43h0c0,5.76-4.67,10.43-10.43,10.43h-9.8s11.85,0,11.85,0c5.76,0,10.43,4.67,10.43,10.43h0c0,5.76-4.67,10.43-10.43,10.43h-12.41"/>
        <line class="cls-3" x1="255.88" y1="233.57" x2="255.88" y2="191.87"/>
        <g>
          <line class="cls-3" x1="137.61" y1="233.49" x2="137.61" y2="191.78"/>
          <polyline class="cls-3" points="169.47 194 150.48 212.99 169.84 232.34"/>
        </g>
        <polyline class="cls-3" points="4.68 193.06 17.42 235.17 32.93 193.06 48.05 235.17 60.79 193.06"/>
      </g>
      <g>
        <path class="cls-1" d="M184.62,108.3c.53-.03,1.01-.11,1.54-.14.55-.03,1.09-.03,1.64-.07,0-.03-.01-.05-.02-.08,45.24-3.5,66.47-32.99,98.95-59.73-36-26.75-81.92-15.82-109.01,26.29-.95,1.46-4.15,6.93-5.61,9.56-1.34-7.89.34-15.64,1.56-20.67C158.03,30.77,133.05,17.57,74.66,0c-15.22,53.68,22.28,101.78,88.24,107.78-1.43,10.9-2.67,21.7-2.23,28.83-33.58,2.46-64.31,13.96-88.32,26.16-1.03.52-.64,2.08.52,2.08h201.7c1.15,0,1.54-1.56.52-2.08-24.07-12.23-54.89-23.76-88.56-26.18.28-7.37-.74-18.66-1.9-28.29Z"/>
        <g>
          <path class="cls-2" d="M182.24,57.97c5.84-6.71,12.25-12.43,19.11-17.02-3.31-8-11.18-13.63-20.37-13.63-7.37,0-13.88,3.63-17.88,9.19,6.09,6.49,11.2,13.96,15.57,22.78l3.58-1.31Z"/>
          <path class="cls-2" d="M179.58,61.12c.87-1.08,1.76-2.12,2.66-3.15l-3.58,1.31c.24.48.5.93.74,1.42.07.14.12.27.18.41Z"/>
          <path class="cls-1" d="M209.31,48.04l14.64-5.37s-.7-1.93-2.06-4.97c-4.48,1.58-8.86,3.64-13.12,6.15.27,1.37.48,2.76.54,4.2Z"/>
          <path class="cls-1" d="M180.98,20.97c11.47,0,21.35,6.84,25.81,16.66,3.99-2.27,8.11-4.17,12.32-5.7-4.92-9.6-13.51-23.15-25.44-29.95-22.51,4.69-38.01,12.32-48.52,19.78,4.9,3.16,9.36,6.54,13.4,10.25,5.2-6.7,13.31-11.04,22.43-11.04Z"/>
        </g>
      </g>
    </g>
  </g>
</svg>