<?xml version="1.0" encoding="UTF-8" standalone="no"?>
<!DOCTYPE svg PUBLIC "-//W3C//DTD SVG 1.1//EN" "http://www.w3.org/Graphics/SVG/1.1/DTD/svg11.dtd">
<svg width="100%" height="100%" viewBox="0 0 215 164" version="1.1"
  xmlns="http://www.w3.org/2000/svg" xmlns:xlink="http://www.w3.org/1999/xlink" xml:space="preserve"
  xmlns:serif="http://www.serif.com/"
  style="fill-rule:evenodd;clip-rule:evenodd;stroke-linejoin:round;stroke-miterlimit:2;"><path d="M113.33,108.3c0.53,-0.03 1.01,-0.11 1.54,-0.14c0.55,-0.03 1.09,-0.03 1.64,-0.07c0,-0.03 -0.01,-0.05 -0.02,-0.08c45.24,-3.5 66.47,-32.99 98.95,-59.73c-36,-26.75 -81.92,-15.82 -109.01,26.29c-0.95,1.46 -4.15,6.93 -5.61,9.56c-1.34,-7.89 0.34,-15.64 1.56,-20.67c-15.64,-32.69 -40.62,-45.89 -99.01,-63.46c-15.22,53.68 22.28,101.78 88.24,107.78c-1.43,10.9 -2.67,21.7 -2.23,28.83c-33.58,2.46 -64.31,13.96 -88.32,26.16c-1.03,0.52 -0.64,2.08 0.52,2.08l201.7,0c1.15,0 1.54,-1.56 0.52,-2.08c-24.07,-12.23 -54.89,-23.76 -88.56,-26.18c0.28,-7.37 -0.74,-18.66 -1.9,-28.29l-0.01,-0Z" style="fill:#83c024;fill-rule:nonzero;"/><path d="M110.95,57.97c5.84,-6.71 12.25,-12.43 19.11,-17.02c-3.31,-8 -11.18,-13.63 -20.37,-13.63c-7.37,0 -13.88,3.63 -17.88,9.19c6.09,6.49 11.2,13.96 15.57,22.78l3.58,-1.31l-0.01,-0.01Z" style="fill:#f49d22;fill-rule:nonzero;"/><path d="M108.29,61.12c0.87,-1.08 1.76,-2.12 2.66,-3.15l-3.58,1.31c0.24,0.48 0.5,0.93 0.74,1.42c0.07,0.14 0.12,0.27 0.18,0.41l0,0.01Z" style="fill:#f49d22;fill-rule:nonzero;"/><path d="M138.02,48.04l14.64,-5.37c0,0 -0.7,-1.93 -2.06,-4.97c-4.48,1.58 -8.86,3.64 -13.12,6.15c0.27,1.37 0.48,2.76 0.54,4.2l0,-0.01Z" style="fill:#83c024;fill-rule:nonzero;"/><path d="M109.69,20.97c11.47,0 21.35,6.84 25.81,16.66c3.99,-2.27 8.11,-4.17 12.32,-5.7c-4.92,-9.6 -13.51,-23.15 -25.44,-29.95c-22.51,4.69 -38.01,12.32 -48.52,19.78c4.9,3.16 9.36,6.54 13.4,10.25c5.2,-6.7 13.31,-11.04 22.43,-11.04Z" style="fill:#83c024;fill-rule:nonzero;"/></svg>
