<?xml version="1.0" encoding="UTF-8"?>
<svg id="_レイヤー_2" data-name="レイヤー 2" xmlns="http://www.w3.org/2000/svg" viewBox="0 0 211.35 161.72">
  <defs>
    <style>
      .cls-1 {
        fill: #ea9828;
      }

      .cls-2 {
        fill: #7fb62c;
      }
    </style>
  </defs>
  <g id="_レイヤー_1-2" data-name="レイヤー 1">
    <g id="_レイヤー_1-2" data-name=" レイヤー 1-2">
      <g>
        <path class="cls-2" d="M111.18,106.24c.52-.03.99-.11,1.51-.14.54-.03,1.07-.03,1.61-.07,0-.03,0-.05-.02-.08,44.38-3.43,65.21-32.36,97.07-58.59-35.32-26.24-80.36-15.52-106.94,25.79-.93,1.43-4.07,6.8-5.5,9.38-1.31-7.74.33-15.34,1.53-20.28C85.09,30.18,60.59,17.24,3.31,0c-14.93,52.66,21.86,99.84,86.56,105.73-1.4,10.69-2.62,21.29-2.19,28.28-32.94,2.41-63.09,13.69-86.64,25.66-1.01.51-.63,2.04.51,2.04h197.86c1.13,0,1.51-1.53.51-2.04-23.61-12-53.85-23.31-86.88-25.68.27-7.23-.73-18.31-1.86-27.75h0Z"/>
        <g>
          <path class="cls-1" d="M108.84,56.87c5.73-6.58,12.02-12.19,18.75-16.7-3.25-7.85-10.97-13.37-19.98-13.37-7.23,0-13.62,3.56-17.54,9.02,5.97,6.37,10.99,13.69,15.27,22.35l3.51-1.29h0Z"/>
          <path class="cls-1" d="M106.23,59.96c.85-1.06,1.73-2.08,2.61-3.09l-3.51,1.29c.24.47.49.91.73,1.39.07.14.12.26.18.4h0Z"/>
          <path class="cls-2" d="M135.4,47.13l14.36-5.27s-.69-1.89-2.02-4.88c-4.39,1.55-8.69,3.57-12.87,6.03.26,1.34.47,2.71.53,4.12h0Z"/>
          <path class="cls-2" d="M107.61,20.57c11.25,0,20.94,6.71,25.32,16.34,3.91-2.23,7.96-4.09,12.09-5.59-4.83-9.42-13.25-22.71-24.96-29.38-22.08,4.6-37.29,12.09-47.6,19.4,4.81,3.1,9.18,6.42,13.15,10.06,5.1-6.57,13.06-10.83,22-10.83h0Z"/>
        </g>
      </g>
    </g>
  </g>
</svg>