<?xml version="1.0" encoding="UTF-8"?>
<svg xmlns="http://www.w3.org/2000/svg" version="1.1" viewBox="0 0 215.4 164.9">
  <defs>
    <style>
      .cls-1 {
        fill: #f7f7f7;
      }
    </style>
  </defs>
  <!-- Generator: Adobe Illustrator 28.7.1, SVG Export Plug-In . SVG Version: 1.2.0 Build 142)  -->
  <g>
    <g id="_レイヤー_2">
      <g id="_レイヤー_1-2">
        <g>
          <path class="cls-1" d="M113.3,108.3c.5,0,1-.1,1.5-.1.6,0,1.1,0,1.6,0,0,0,0,0,0,0,45.2-3.5,66.5-33,98.9-59.7-36-26.8-81.9-15.8-109,26.3-.9,1.5-4.2,6.9-5.6,9.6-1.3-7.9.3-15.6,1.6-20.7C86.7,30.8,61.8,17.6,3.4,0c-15.2,53.7,22.3,101.8,88.2,107.8-1.4,10.9-2.7,21.7-2.2,28.8-33.6,2.5-64.3,14-88.3,26.2-1,.5-.6,2.1.5,2.1h201.7c1.1,0,1.5-1.6.5-2.1-24.1-12.2-54.9-23.8-88.6-26.2.3-7.4-.7-18.7-1.9-28.3h0Z"/>
          <g>
            <path class="cls-1" d="M110.9,58c5.8-6.7,12.2-12.4,19.1-17-3.3-8-11.2-13.6-20.4-13.6s-13.9,3.6-17.9,9.2c6.1,6.5,11.2,14,15.6,22.8l3.6-1.3h0Z"/>
            <path class="cls-1" d="M108.3,61.1c.9-1.1,1.8-2.1,2.7-3.2l-3.6,1.3c.2.5.5.9.7,1.4,0,.1.1.3.2.4h0Z"/>
            <path class="cls-1" d="M138,48l14.6-5.4s-.7-1.9-2.1-5c-4.5,1.6-8.9,3.6-13.1,6.2.3,1.4.5,2.8.5,4.2h0Z"/>
            <path class="cls-1" d="M109.7,21c11.5,0,21.4,6.8,25.8,16.7,4-2.3,8.1-4.2,12.3-5.7-4.9-9.6-13.5-23.1-25.4-30-22.5,4.7-38,12.3-48.5,19.8,4.9,3.2,9.4,6.5,13.4,10.2,5.2-6.7,13.3-11,22.4-11Z"/>
          </g>
        </g>
      </g>
    </g>
  </g>
</svg>