<?xml version="1.0" encoding="UTF-8"?>
<svg xmlns="http://www.w3.org/2000/svg" version="1.1" viewBox="0 0 146 146">
  <defs>
    <style>
      .cls-1 {
        fill: #75b726;
      }
    </style>
  </defs>
  <!-- Generator: Adobe Illustrator 28.7.2, SVG Export Plug-In . SVG Version: 1.2.0 Build 154)  -->
  <g>
    <g id="_レイヤー_2">
      <g id="_レイヤー_1-2">
        <circle class="cls-1" cx="73" cy="73" r="54.2"/>
      </g>
      <g id="_レイヤー_1-2-2" data-name="_レイヤー_1-2">
        <g>
          <path class="cls-1" d="M29.7,41.9c-.3-.3-.9-.6-1.4-.9,0,0,0,0,0,0,0,0,0,0,0,0,0,0,0,0,0,0,1.6-2.4,1.1-4.5,1.1-7.1-2.6.8-3.9,3.5-3.1,6.4,0,.1.2.5.2.6-.4-.2-.7-.6-.9-.8-2.1-.4-3.7.4-6.8,2.6,1.9,2.7,5.5,2.6,8.4-.5.4.5.9.9,1.2,1.2"/>
          <path class="cls-1" d="M26.5,37.5l.3-.9s-.1,0-.3,0c-.1.3-.2.6-.2.9,0,0,.1,0,.2.1h0Z"/>
        </g>
      </g>
      <g id="_レイヤー_1-2-3" data-name="_レイヤー_1-2">
        <g>
          <path class="cls-1" d="M125.2,61.4c.4,0,.9-.3,1.4-.4,0,0,0,0,0,0,0,0,0,0,0,0,0,0,0,0,0,0,.7,2.2,2.5,2.9,4.2,4.1.9-2.1-.3-4.2-2.7-5,0,0-.4-.1-.5-.2.4-.2.8-.2,1-.2,1.4-1.2,1.7-2.6,1.9-5.7-2.8,0-4.7,2.4-4.2,5.7-.6,0-1.1.1-1.4.3"/>
          <path class="cls-1" d="M129.9,61.4l.4.7s0,0,.2-.2c-.1-.2-.3-.4-.5-.6,0,0-.1,0-.2,0h0Z"/>
        </g>
      </g>
      <g id="_レイヤー_1-2-4" data-name="_レイヤー_1-2">
        <path class="cls-1" d="M32.5,110.8s0,0,0,0c-2.3-2-4.7-1.6-7.5-1.9.3,2.2,1.8,3.6,3.9,4,.5,0,1.1,0,1.7-.2-.3.3-.6.5-.9.7-.5.5-1,.8-1.1,1,0,0,0,0,0,0,0,0,0,0,0,0,0,0,0,0,0,0-1.5-1.2-2.8-.9-4.6-1.1,0,.6.3,1.1.7,1.6.4-.2.8-.3,1.3-.4-.5.2-1,.5-1.3.9-.8,1.1-.8,2.7-1.4,3.3.3.3.7.4,1.3.3,0,.2.2.3.3.5.5-.5,1.8-.6,2.8-1,.2.7.6,1.5,1.1,2.6,2-1.1,2.2-3.6.7-5.7.1,0,.7-.5,1.4-.9-.5,2,.2,3.7,1.9,6.9,3.3-1.8,3.8-5.8,1-9.2.6-.4,1.2-.9,1.5-1.2l-1.2-1.2c-.4.3-.9.9-1.3,1.4,0,0,0,0,0,0,0,0,0,0,0,0h0ZM27.9,117.3s0,0,.1,0c-.2.5-1,.9-1.4.7.4,0,.9-.4,1.3-.7Z"/>
      </g>
      <g id="_レイヤー_1-2-5" data-name="_レイヤー_1-2">
        <path class="cls-1" d="M115.7,116.3c0-.5-.3-1.1-.7-1.7.6.3,1,.8,1.2,1.1.8.6,1.6,1.1,2,1.4,0,.3,0,.6,0,.9,0,.2,0,.3,0,.5-1.1,1.1-1.2,2.3-1.2,3.7.5.1,1.2.3,1.7.3,0,.9-.4,2.4.4,4.1.7-.8,1.3-1.4,1.8-1.9.4-.5.7-1.1.8-1.8,0,.6,0,1.2-.3,1.7.5.9,1.2,1.9,2.2,2.9,2-1.8,2.8-3.6,2.7-5.4,1.3.1,2.9-.4,4.9-1.7-.7-1.7-1.6-2.7-2.7-3.1-.4.3-.9.5-1.4.6.7-.4,1.2-.9,1.6-1.6.4-.6.6-1.4.7-2.2-1.7-.6-3.2,0-4.7.7-.2-.3-.4-.8-.9-1.4-1.3.5-1.7.8-2.1,1.1-.2,0-.5.1-.7.2-.5-.3-1-.2-2,0,0,0,0,.1,0,.2-.5-.4-1.1-.8-1.8-1.3,2.4-.2,4.3-1.5,7.5-4.4-3.2-3.4-8.2-2.6-11.3,1.5-.8-.5-1.4-1.1-2-1.4l-1.3,2.2c.5.3,1.3.7,2.1,1.1,0,0,0,0,0,.1,0,0,0,.1,0,.2,0,0,0,0,0,0-1.9,3.7-.3,5.9.2,9.3,2.5-1.1,3.9-3.4,3.6-6h0ZM124.4,118.2c.5.6.3,1.7-.6,2.5-.6.6-1.4.9-2,.7.1-.6.1-1.2,0-1.9.2,0,.3-.2.5-.3.5-.4.8-.8.9-1.2.4,0,.8,0,1.1,0,0,0,.1,0,.2.2h0Z"/>
      </g>
    </g>
  </g>
</svg>