<?xml version="1.0" encoding="UTF-8"?>
<svg id="_レイヤー_2" data-name="レイヤー 2" xmlns="http://www.w3.org/2000/svg" viewBox="0 0 391.74 255.39">
  <defs>
    <style>
      .cls-1 {
        fill: #7fb62c;
      }
    </style>
  </defs>
  <g id="_レイヤー_1-2" data-name="レイヤー 1">
    <g>
      <path class="cls-1" d="M111.18,149.03c-3.79,4.01-6.88,8.96-9.14,16.01-1.37-6.98.08-12.57,1.19-16.58-.29-10.07-.63-19.54-1.03-24.73,2.61-1.74,5.02-3.69,7.24-5.78,1.53-.62,2.89-1.32,4.12-2.1,15.13,2.21,25.7-4.14,37.11-12.56-2.07-4.78-4.63-11.06-7.7-15.63,7.47-5.99,22.13-11.58,30.43-27.81-10.22-.81-18.72-1.78-26.28-2.41-6.46-.23-12.45,1.08-19.1,4.03,4.79-4.25,9.93-6.86,15.64-8.07,4.27-9.42,7.56-20.99,10.03-35-26.37-5.17-46.11-1.19-59.97,10.79-7.19-11.38-21.21-20.72-42.93-29.18-8.95,16.15-11.37,29.35-8.45,40.61,4.81,1.72,9.57,4.29,13.79,7.63-7.86-3.27-14.77-4.28-22.76-3.24-7.31,1.03-15.03,3.65-22.53,7.77,5.28,17.72,19.11,26.05,34.2,33.36-1.09,3.15-4.21,7.67-6.03,15.89,11.41,7.56,16.88,9.3,21.85,10.07,1.84,1.66,3.82,3.13,5.93,4.38,1.15,5.82,4.39,9.87,12.68,15.33.64-.07,1.26-.16,1.88-.25.03,6.11.11,14.14.25,22.28-15.51-18.05-37.75-25.6-80.52-33.6-7.84,45.99,28.92,81.82,80.27,81.99.43,9.25-7.3,47.29-6.22,53.17h21c-.38-6.16,9.79-46.39,8.58-55.24.57-.08,1.08-.2,1.64-.29.59-.09,1.17-.15,1.76-.25-.01-.02-.02-.04-.03-.07,41.09-7.37,49.02-33.02,73.62-58.16-23.99-14.11-50.66-10.47-70.49,7.64ZM73.85,67.02c1.27-7.81,11.8-12.59,23.51-10.67,8.63,1.41,15.49,6.07,17.99,11.54-5.81,2.82-10.25,6.08-14.67,12.28-1.62-.77-3.36-1.42-5.22-1.9-5.61-1.47-11.06-1.22-15.28.35-1.91-3.69-3.98-6.51-6.38-8.92-.1-.89-.1-1.78.05-2.68Z"/>
      <path class="cls-1" d="M293.55,239.41s0-.05,0-.08c39.54,7.18,64.36-13.31,98.19-28.91-18.2-22.74-45.52-29.31-71.69-19.39-6.5,2.54-12.41,6.44-18.28,13.78,1.02-5.94,3.49-10.31,5.77-13.65,3.06-9,5.4-16.27,5.6-18.11.36.08.7.12,1.06.2.38.08.74.18,1.12.25,0-.02,0-.03,0-.05,25.02,3.95,38.62-8.8,59.83-18.57-5.18-6.48-11.55-10.83-18.5-13.1-3.11,4.75-7.19,9.22-11.99,12.84,4.71-6.2,7.92-12.51,9.08-19.37,1.6-17.49-9.65-36.15-6.71-46.82-5.31-1.4-11.08.63-16.8,4.57-2.18-1.4-4.51-2.46-6.99-3.12-2.3,9.19-16.55,18.38-25.12,30.89-6.9-6.8-16.59-13.5-30.04-21.73-15.74,26.68-1.05,56.61,30.45,69.86-.92,2.05-4.85,9.85-9.51,19.2-7.97-25.49-27.06-41.67-68.07-66.76-25.11,42.56-3.81,92.19,51.34,112.17-3.68,9.01-6.64,15.65-7.86,21.85h23.66c1.16-4.46,1.52-8,2.69-16.52.46.1.89.14,1.35.23.48.1.94.22,1.42.31ZM302.29,134.06c-.55.38-1.09.74-1.62,1.05-.8-7.74,5.42-16.6,11.67-17.41-4.17,3.41-8.2,10.33-10.05,16.36Z"/>
    </g>
  </g>
</svg>