<?xml version="1.0" encoding="UTF-8"?>
<svg id="_レイヤー_1" data-name="レイヤー 1" xmlns="http://www.w3.org/2000/svg" xmlns:xlink="http://www.w3.org/1999/xlink" viewBox="0 0 1920 540">
  <defs>
    <style>
      .cls-1 {
        fill: none;
      }

      .cls-2 {
        fill: #f39c22;
      }

      .cls-3 {
        fill: #7fb62c;
      }

      .cls-4 {
        clip-path: url(#clippath);
      }
    </style>
    <clipPath id="clippath">
      <rect class="cls-1" width="1920" height="540.96"/>
    </clipPath>
  </defs>
  <g class="cls-4">
    <g>
      <circle class="cls-2" cx="1831.77" cy="467.97" r="72.99"/>
      <circle class="cls-2" cx="1518.31" cy="232.28" r="32.24"/>
      <path class="cls-3" d="M1359.15-67.12c.06,0,.12,0,.18,0-17.4,95.9,32.28,156.09,70.1,238.13,55.15-44.13,71.08-110.4,47.02-173.85-6.16-15.75-15.61-30.09-33.42-44.34,14.39,2.47,25.01,8.46,33.09,13.99,21.83,7.43,39.46,13.1,43.93,13.58-.19.88-.3,1.7-.48,2.57-.2.92-.42,1.8-.62,2.72.04,0,.08,0,.12,0-9.58,60.67,21.33,93.66,45.05,145.09,15.7-12.57,26.26-28.02,31.77-44.85-11.52-7.55-22.35-17.44-31.13-29.09,15.04,11.43,30.35,19.21,46.99,22.01,42.41,3.88,87.68-23.39,113.54-16.26,3.39-12.88-1.53-26.86-11.09-40.75,3.39-5.28,5.98-10.94,7.56-16.95-22.3-5.57-44.58-40.14-74.93-60.93,16.5-16.73,32.74-40.23,52.7-72.84-64.71-38.17-137.28-2.55-169.43,73.85-4.98-2.23-23.89-11.76-46.57-23.07,61.81-19.32,101.06-65.63,161.91-165.09-103.22-60.89-223.59-9.24-272.03,124.51-21.86-8.93-43.63-17.4-58.68-20.36l-14.07,53.72c15.16,4.6,39.16,8.65,59.81,11.49-.24,1.12-.33,2.16-.55,3.27-.24,1.16-.52,2.28-.75,3.45ZM1614.65-45.92c-.91-1.33-1.79-2.65-2.55-3.92,18.78-1.93,40.25,13.14,42.23,28.29-8.27-10.12-25.05-19.89-39.68-24.37Z"/>
      <path class="cls-3" d="M1871.96,157.89c7.88-12.69,13.4-27.47,15.6-47.39,7.41,17.76,6.59,33.38,5.82,44.61,6.22,26.55,12.24,51.47,16.1,65.03-5.99,6.02-11.31,12.49-16.08,19.24-3.72,2.47-6.94,5.07-9.78,7.8-41.31,2.33-65.91,24.87-91.63,53.35,8.07,11.55,18.26,26.82,28.87,37.29-16.58,19.92-52.42,42.65-65.66,90.19,27.54-3.38,50.6-5.41,71-7.82,17.26-2.88,32.44-9.59,48.47-21.02-10.4,13.86-22.63,23.56-37.12,29.85-6.24,27.29-8.71,59.75-7.67,98.23,72.73-.54,122.91-21.75,153.2-61.01,25.21,26.29,67.43,43.47,129.61,54.19,15.02-47.67,14.29-83.97.47-112.24-13.69-1.96-27.7-6.21-40.69-12.79,22.61,4.43,41.49,3.37,62.1-3.72,18.83-6.67,37.87-17.81,55.55-32.79-23.57-44.14-64.76-58.75-108.72-69.98,1.2-8.95,7.03-22.61,7.41-45.41-34.33-13.88-49.79-15.54-63.39-14.89-5.77-3.42-11.81-6.24-18.08-8.4-6.2-14.8-16.98-23.79-41.9-33.81-1.65.53-3.24,1.1-4.84,1.67-3.37-16.18-7.94-37.42-12.7-58.94,50.88,39.5,113.95,47.49,231.67,45.6-4.05-126.19-120.89-201.34-257.15-174.04-6.15-24.29-9.91-48.38-15.96-63.38l-67.21,21.44c4.34,16.13,14.35,37.26,22.34,60.07-1.46.53-2.75,1.12-4.18,1.66-1.52.55-3.01,1.04-4.53,1.61.04.05.08.11.12.16-104.97,41.75-112.14,114.06-163.79,194,71.24,24.46,140,.39,182.78-58.36ZM2015.26,355.18c.84,21.39-24.49,39.75-56.57,41.01-23.66.93-44.35-7.72-53.94-20.89,13.88-10.61,23.89-21.66,32.26-40.49,4.71,1.16,9.68,1.94,14.87,2.23,15.67.86,30-2.75,40.34-9.19,7.07,8.75,14.08,15.12,21.73,20.21.74,2.3,1.22,4.67,1.31,7.12Z"/>
    </g>
  </g>
</svg>
<?xml version="1.0" encoding="UTF-8"?>
<svg id="_レイヤー_1" xmlns="http://www.w3.org/2000/svg" xmlns:xlink="http://www.w3.org/1999/xlink" viewBox="0 0 1920 540">
  <defs>
    <style>
      .cls-1 {
        fill: none;
      }

      .cls-2 {
        fill: #f39c22;
      }

      .cls-3 {
        fill: #7fb62c;
      }

      .cls-4 {
        clip-path: url(#clippath);
      }
    </style>
    <clipPath id="clippath">
      <rect class="cls-1" y="0" width="1920" height="540.96"/>
    </clipPath>
  </defs>
  <g class="cls-4">
    <g>
      <circle class="cls-2" cx="1831.77" cy="467.97" r="72.99"/>
      <circle class="cls-2" cx="1601.71" cy="204.77" r="32.24"/>
      <path class="cls-3" d="M1359.15-67.12h.18c-17.4,95.9-22.97,140.67,34.48,204.16,55.15-44.13,76.38-75.1,82.64-139.88-6.16-15.75-15.61-30.09-33.42-44.34,14.39,2.47,25.01,8.46,33.09,13.99,21.83,7.43,39.46,13.1,43.93,13.58-.19.88-.3,1.7-.48,2.57-.2.92-.42,1.8-.62,2.72h.12c-9.58,60.67,21.33,93.66,45.05,145.09,15.7-12.57,26.26-28.02,31.77-44.85-11.52-7.55-22.35-17.44-31.13-29.09,15.04,11.43,30.35,19.21,46.99,22.01,42.41,3.88,87.68-23.39,113.54-16.26,3.39-12.88-1.53-26.86-11.09-40.75,3.39-5.28,5.98-10.94,7.56-16.95-22.3-5.57-44.58-40.14-74.93-60.93,16.5-16.73,32.74-40.23,52.7-72.84-64.71-38.17-137.28-2.55-169.43,73.85-4.98-2.23-23.89-11.76-46.57-23.07,61.81-19.32,101.06-65.63,161.91-165.09-103.22-60.89-223.59-9.24-272.03,124.51-21.86-8.93-43.63-17.4-58.68-20.36l-14.07,53.72c15.16,4.6,39.16,8.65,59.81,11.49-.24,1.12-.33,2.16-.55,3.27-.24,1.16-.52,2.28-.75,3.45h-.02ZM1614.65-45.92c-.91-1.33-1.79-2.65-2.55-3.92,18.78-1.93,40.25,13.14,42.23,28.29-8.27-10.12-25.05-19.89-39.68-24.37h0Z"/>
      <path class="cls-3" d="M1882.01,128.43c11.12-9.98,20.55-22.62,28.24-41.13,2.14,19.12-3.02,33.89-6.9,44.46-1.46,27.23-2.66,52.84-2.74,66.94-7.44,4.1-14.35,8.83-20.82,13.97-4.26,1.33-8.08,2.92-11.57,4.75-40.31-9.33-70.24,5.43-102.9,25.57,4.51,13.35,10.02,30.86,17.28,43.88-21.49,14.48-62.26,26.27-88.28,68.21,27.39,4.46,50.09,8.97,70.35,12.36,17.38,2.07,33.83-.13,52.42-6.61-13.86,10.4-28.32,16.28-43.99,18.27-13.63,24.45-25.09,54.92-34.86,92.16,69.97,19.84,124.09,13.52,164.15-15.69,16.84,32.3,52.57,60.61,109.26,88.3,27.76-41.56,37.22-76.61,31.87-107.62-12.59-5.71-24.85-13.71-35.48-23.67,20.47,10.58,38.89,14.85,60.66,13.81,19.94-1.13,41.34-6.5,62.51-15.93-10.27-48.97-45.73-74.53-84.79-97.61,3.66-8.26,13.08-19.74,19.82-41.52-29.07-22.93-43.45-28.85-56.69-32.04-4.58-4.9-9.59-9.3-15.01-13.12-1.81-15.94-9.64-27.59-30.76-44.19-1.73.05-3.42.15-5.11.25,1.29-16.48,2.85-38.15,4.3-60.14,37.79,52.16,96.1,77.49,209.65,108.62,31.43-122.28-59.71-227.13-198.16-239.06.89-25.04,4.03-49.22,2.42-65.31l-70.52,1.77c-.35,16.7,3.35,39.79,4.63,63.92-1.55.1-2.95.31-4.48.42-1.61.1-3.18.16-4.8.28.02.06.05.13.07.19-112.46,10.7-139.58,78.11-211.54,140.4,61.55,43.42,134.3,39.56,191.81-4.87h-.03ZM1964.36,357.95c-5.18,20.77-34.64,31.31-65.79,23.54-22.97-5.73-40.42-19.82-45.94-35.15,16.29-6.3,29-14.11,42.3-29.84,4.2,2.43,8.75,4.57,13.65,6.3,14.8,5.21,29.57,5.76,41.3,2.47,4.34,10.38,9.29,18.46,15.2,25.48.07,2.42-.14,4.82-.74,7.2h0Z"/>
    </g>
  </g>
</svg>