<?xml version="1.0" encoding="UTF-8"?>
<svg id="_レイヤー_1" data-name="レイヤー 1" xmlns="http://www.w3.org/2000/svg" xmlns:xlink="http://www.w3.org/1999/xlink" viewBox="0 0 1920 540">
  <defs>
    <style>
      .cls-1 {
        fill: none;
      }

      .cls-2 {
        fill: #f39c22;
      }

      .cls-3 {
        fill: #7fb62c;
      }

      .cls-4 {
        clip-path: url(#clippath);
      }
    </style>
    <clipPath id="clippath">
      <rect class="cls-1" width="1920" height="540.96"/>
    </clipPath>
  </defs>
  <g class="cls-4">
    <g>
      <circle class="cls-2" cx="407.76" cy="319.51" r="33.53"/>
      <circle class="cls-2" cx="94.11" cy="505.39" r="165.99"/>
      <path class="cls-3" d="M421.83,564.51s-.04-.03-.06-.04c28.42-25.43,27.54-55.95,35.58-90.37-27.63.37-48.48,17.01-56.29,42.38-1.88,6.35-2.41,13.04-.34,21.72-3.85-4.22-5.69-8.62-6.86-12.27-4.95-7.54-9.03-13.53-10.3-14.75.27-.22.5-.45.77-.68.28-.24.56-.45.84-.69-.01,0-.03-.02-.04-.03,17.54-16.43,15.92-34.05,20.96-55.62-7.87.11-14.84,2.34-20.59,6.22,1.74,5.1,2.71,10.76,2.62,16.46-1.9-7.14-4.75-13.22-9.22-18.09-12.16-11.39-32.69-13.85-38.97-22.26-4.14,3.16-5.98,8.66-6.37,15.25-2.32.82-4.47,1.94-6.41,3.42,5.55,7.08,4.12,23.11,8.49,36.82-9.12,1.2-19.78,4.55-33.78,9.83,10.81,27.34,41.78,33.77,70.06,17.91,1,1.88,4.55,9.37,8.84,18.31-23.73-8.89-46.97-4.02-89.66,12.07,17.24,43.61,66.82,56.58,113.91,26.92,4.6,8.01,9.29,15.86,13.23,20.39l17.25-13.2c-3.58-5.07-10.01-12.08-15.71-17.92.34-.29.62-.59.96-.88.35-.3.71-.58,1.06-.89ZM348.03,496.56c-.04.63-.08,1.25-.16,1.82-6.26-3.92-9.27-13.73-6.24-18.88.12,5.11,2.96,12.16,6.4,17.06Z"/>
      <path class="cls-3" d="M48.91,461.85c-13.42,6.57-25.95,16.16-38.38,31.87,3.15-18.99,12.14-31.78,18.76-40.89,8.83-25.8,16.96-50.11,20.9-63.65,8.28-1.92,16.21-4.58,23.85-7.77,4.46-.11,8.58-.61,12.43-1.41,36.24,19.97,69.06,13.93,105.97,3.45-.71-14.07-1.23-32.42-4.66-46.92,24.63-8.07,67.07-8.3,103.53-41.55-25.13-11.76-45.74-22.29-64.31-31.08-16.16-6.73-32.58-9.1-52.23-7.93,16.17-6.22,31.68-7.94,47.3-5.58,19.78-19.81,39.11-46,58.67-79.15-61.91-38.17-115.69-46.84-162.21-29.66-7.4-35.66-34.05-72.65-81.04-114.74C-.56,59.25-19.22,90.39-22.52,121.69c10.56,8.93,20.17,19.98,27.68,32.45-16.8-15.76-33.37-24.89-54.59-29.83-19.5-4.35-41.55-5.02-64.49-1.72-3.46,49.92,23.67,84.18,54.96,117.03-5.77,6.95-17.96,15.42-30.39,34.54,21.72,29.99,33.94,39.6,45.81,46.28,3.07,5.96,6.7,11.56,10.86,16.72-2.61,15.84,1.76,29.17,17.55,50.9,1.68.43,3.33.79,4.99,1.16-5.74,15.5-13.15,35.93-20.54,56.68-22.13-60.48-71.33-100.75-172.09-161.67-63.58,109.08-4.49,234.8,125.47,284.03-7.69,23.85-106.92,205.84-109.75,221.77l23.61,83.56c4.89-15.97,141.96-264.81,147.31-288.39,1.52.33,2.92.51,4.43.82,1.58.34,3.1.72,4.69,1.04,0-.07,0-.13-.01-.2,111.11,20.37,155.59-37.09,241.81-77.4-47.37-58.56-118.42-74.68-185.86-47.62ZM32.26,218.57c10.65-18.57,41.86-20.68,69.71-4.7,20.54,11.78,33.48,30.09,34.61,46.34-17.4,1.62-31.75,5.66-48.83,17.18-3.37-3.48-7.17-6.78-11.41-9.78-12.82-9.05-26.88-13.6-39.06-13.64-1.34-11.17-3.9-20.29-7.68-28.66.59-2.34,1.45-4.61,2.67-6.73Z"/>
    </g>
  </g>
</svg>