<?xml version="1.0" encoding="UTF-8"?>
<svg id="_レイヤー_1" data-name="レイヤー 1" xmlns="http://www.w3.org/2000/svg" xmlns:xlink="http://www.w3.org/1999/xlink" viewBox="0 0 1920 540">
  <defs>
    <style>
      .cls-1 {
        fill: none;
      }

      .cls-2 {
        fill: #f39c22;
      }

      .cls-3 {
        fill: #7fb62c;
      }

      .cls-4 {
        clip-path: url(#clippath);
      }
    </style>
    <clipPath id="clippath">
      <rect class="cls-1" width="1920" height="540.96"/>
    </clipPath>
  </defs>
  <g class="cls-4">
    <g>
      <circle class="cls-2" cx="1831.77" cy="467.97" r="72.99"/>
      <circle class="cls-2" cx="1518.31" cy="232.28" r="32.24"/>
      <path class="cls-3" d="M1359.15-67.12c.06,0,.12,0,.18,0-17.4,95.9,32.28,156.09,70.1,238.13,55.15-44.13,71.08-110.4,47.02-173.85-6.16-15.75-15.61-30.09-33.42-44.34,14.39,2.47,25.01,8.46,33.09,13.99,21.83,7.43,39.46,13.1,43.93,13.58-.19.88-.3,1.7-.48,2.57-.2.92-.42,1.8-.62,2.72.04,0,.08,0,.12,0-9.58,60.67,21.33,93.66,45.05,145.09,15.7-12.57,26.26-28.02,31.77-44.85-11.52-7.55-22.35-17.44-31.13-29.09,15.04,11.43,30.35,19.21,46.99,22.01,42.41,3.88,87.68-23.39,113.54-16.26,3.39-12.88-1.53-26.86-11.09-40.75,3.39-5.28,5.98-10.94,7.56-16.95-22.3-5.57-44.58-40.14-74.93-60.93,16.5-16.73,32.74-40.23,52.7-72.84-64.71-38.17-137.28-2.55-169.43,73.85-4.98-2.23-23.89-11.76-46.57-23.07,61.81-19.32,101.06-65.63,161.91-165.09-103.22-60.89-223.59-9.24-272.03,124.51-21.86-8.93-43.63-17.4-58.68-20.36l-14.07,53.72c15.16,4.6,39.16,8.65,59.81,11.49-.24,1.12-.33,2.16-.55,3.27-.24,1.16-.52,2.28-.75,3.45ZM1614.65-45.92c-.91-1.33-1.79-2.65-2.55-3.92,18.78-1.93,40.25,13.14,42.23,28.29-8.27-10.12-25.05-19.89-39.68-24.37Z"/>
      <path class="cls-3" d="M1871.96,157.89c7.88-12.69,13.4-27.47,15.6-47.39,7.41,17.76,6.59,33.38,5.82,44.61,6.22,26.55,12.24,51.47,16.1,65.03-5.99,6.02-11.31,12.49-16.08,19.24-3.72,2.47-6.94,5.07-9.78,7.8-41.31,2.33-65.91,24.87-91.63,53.35,8.07,11.55,18.26,26.82,28.87,37.29-16.58,19.92-52.42,42.65-65.66,90.19,27.54-3.38,50.6-5.41,71-7.82,17.26-2.88,32.44-9.59,48.47-21.02-10.4,13.86-22.63,23.56-37.12,29.85-6.24,27.29-8.71,59.75-7.67,98.23,72.73-.54,122.91-21.75,153.2-61.01,25.21,26.29,67.43,43.47,129.61,54.19,15.02-47.67,14.29-83.97.47-112.24-13.69-1.96-27.7-6.21-40.69-12.79,22.61,4.43,41.49,3.37,62.1-3.72,18.83-6.67,37.87-17.81,55.55-32.79-23.57-44.14-64.76-58.75-108.72-69.98,1.2-8.95,7.03-22.61,7.41-45.41-34.33-13.88-49.79-15.54-63.39-14.89-5.77-3.42-11.81-6.24-18.08-8.4-6.2-14.8-16.98-23.79-41.9-33.81-1.65.53-3.24,1.1-4.84,1.67-3.37-16.18-7.94-37.42-12.7-58.94,50.88,39.5,113.95,47.49,231.67,45.6-4.05-126.19-120.89-201.34-257.15-174.04-6.15-24.29-9.91-48.38-15.96-63.38l-67.21,21.44c4.34,16.13,14.35,37.26,22.34,60.07-1.46.53-2.75,1.12-4.18,1.66-1.52.55-3.01,1.04-4.53,1.61.04.05.08.11.12.16-104.97,41.75-112.14,114.06-163.79,194,71.24,24.46,140,.39,182.78-58.36ZM2015.26,355.18c.84,21.39-24.49,39.75-56.57,41.01-23.66.93-44.35-7.72-53.94-20.89,13.88-10.61,23.89-21.66,32.26-40.49,4.71,1.16,9.68,1.94,14.87,2.23,15.67.86,30-2.75,40.34-9.19,7.07,8.75,14.08,15.12,21.73,20.21.74,2.3,1.22,4.67,1.31,7.12Z"/>
    </g>
  </g>
</svg>