<?xml version="1.0" encoding="UTF-8"?>
<svg id="_レイヤー_2" data-name="レイヤー_2" xmlns="http://www.w3.org/2000/svg" xmlns:xlink="http://www.w3.org/1999/xlink" viewBox="0 0 205.56 635.84">
  <defs>
    <style>
      .cls-1 {
        fill: none;
      }

      .cls-2 {
        fill: #e6e7eb;
      }

      .cls-3 {
        clip-path: url(#clippath);
      }
    </style>
    <clipPath id="clippath">
      <rect class="cls-1" width="205.56" height="635.84"/>
    </clipPath>
  </defs>
  <g id="_ページ送り" data-name="ページ送り">
    <g class="cls-3">
      <g>
        <path class="cls-2" d="M239.33,646.34s-.07-.07-.11-.1c64.98-48.37,68.97-113.11,92.55-184.4-58.53-4.49-105.81,26.71-127.2,78.9-5.2,13.07-7.59,27.13-4.86,45.89-7.34-9.67-10.39-19.33-12.16-27.28-9.04-16.89-16.53-30.34-18.97-33.17.62-.42,1.14-.86,1.75-1.29.64-.44,1.28-.85,1.92-1.3-.03-.02-.05-.04-.08-.06,40.25-31.41,40.19-68.98,54.97-113.67-16.67-1.28-31.85,2.12-44.74,9.21,2.71,11.12,3.68,23.28,2.4,35.33-2.65-15.48-7.53-28.89-16.05-40.03-23.56-26.42-66.52-35.54-78.18-54.55-9.37,5.9-14.31,17.18-16.38,31.04-5.06,1.28-9.84,3.25-14.21,6,10.38,16.04,4.3,49.67,10.93,79.52-19.51.8-42.71,5.85-73.34,14.34,17.64,59.9,81.93,79.44,144.8,51.29,1.76,4.18,7.84,20.7,15.2,40.43-48.5-23.34-98.61-17.49-192,8.39,28.13,95.55,130.54,132.48,235.85,78.74,8.21,17.82,16.62,35.32,24.08,45.66l39.02-24.64c-6.6-11.4-18.87-27.47-29.8-40.92.78-.54,1.43-1.12,2.19-1.67.81-.57,1.61-1.09,2.42-1.67ZM96.2,488.49c-.2,1.33-.42,2.63-.68,3.83-12.5-9.48-16.99-30.81-9.6-41.14-.72,10.84,3.93,26.29,10.27,37.31Z"/>
        <path class="cls-2" d="M55.58,218.71c-11.99,3.24-23.73,9.08-36.36,19.93,5.58-14.99,14.93-24.01,21.78-30.39,11.29-19.65,21.77-38.2,27.13-48.63,7.06-.26,13.95-1.17,20.69-2.56,3.66.61,7.09.86,10.36.82,26.41,22.03,54.14,22.3,85.92,19.59,1.65-11.59,4.13-26.65,3.63-39.02,21.37-2.69,56.04,3.84,91.05-17.52-18.64-13.57-33.8-25.43-47.55-35.54-12.12-8.05-25.14-12.59-41.36-14.74,14.18-2.52,27.11-1.47,39.48,2.93,19.28-13.03,39.19-31.34,60.4-55.3-44.47-40.94-86.98-56.53-127.66-49.88-.39-30.27-16.28-64.66-47.96-106.45-36.17,20.43-56.33,42.89-63.97,67.9,7.2,8.95,13.29,19.49,17.45,30.86-11.22-15.52-23.28-25.59-39.82-32.98-15.22-6.64-33.1-10.68-52.35-11.61C-34.31-43.69-17.59-11.44,2.74,20.31c-5.8,4.76-17.1,9.74-30.26,23.37C-14.55,71.6-6.1,81.37,2.53,88.7c1.56,5.35,3.63,10.49,6.21,15.36-4.63,12.51-3.18,24.08,6.26,44.31,1.3.62,2.59,1.17,3.89,1.74-7.13,11.74-16.41,27.23-25.73,43-8.49-52.85-42.26-93.5-114.82-159.15-69.14,78.93-40.82,190.87,57.42,251.61-10.05,18.24-21.44,35.01-26.27,47.55l52.98,25.11c6.52-12.25,12.42-30.77,20.52-49.16,1.19.51,2.31.88,3.48,1.37,1.24.52,2.42,1.08,3.66,1.59,0-.06.01-.11.02-.16,87.43,34.21,132.82-5.64,209.55-24.88-29.38-55.28-84.8-79.68-144.11-68.27ZM80.5,17.58c11.63-13.47,37.43-10.24,57.63,7.2,14.89,12.86,22.55,29.85,20.9,43.29-14.45-1.43-26.8-.4-42.56,6.29-2.2-3.37-4.78-6.67-7.76-9.79-9.02-9.41-19.78-15.35-29.71-17.31.68-9.33.03-17.17-1.73-24.6.85-1.82,1.91-3.53,3.24-5.07Z"/>
      </g>
    </g>
  </g>
</svg>