<?xml version="1.0" encoding="UTF-8"?>
<svg id="_レイヤー_2" data-name="レイヤー_2" xmlns="http://www.w3.org/2000/svg" viewBox="0 0 1446.14 1106.57">
  <defs>
    <style>
      .cls-1 {
        fill: #70b427;
      }

      .cls-2 {
        opacity: .75;
      }
    </style>
  </defs>
  <g id="_ページ送り" data-name="ページ送り">
    <g class="cls-2">
      <g>
        <path class="cls-1" d="M760.75,726.96c3.56-.18,6.8-.71,10.32-.92,3.71-.2,7.31-.23,11.04-.47-.05-.19-.1-.37-.15-.56,303.7-23.53,446.2-221.47,664.17-400.93-241.63-179.56-549.89-106.17-731.71,176.44-6.36,9.79-27.86,46.54-37.65,64.19-9-52.94,2.28-105,10.45-138.78C582.23,206.56,414.55,117.92,22.63,0c-102.13,360.35,149.55,683.17,592.29,723.46-9.63,73.16-17.95,145.69-14.96,193.54-225.43,16.51-431.65,93.7-592.84,175.62-6.9,3.51-4.28,13.96,3.46,13.96h1353.94c7.74,0,10.37-10.45,3.46-13.96-161.58-82.13-368.42-159.48-594.49-175.73,1.88-49.49-4.94-125.24-12.75-189.92Z"/>
        <g>
          <path class="cls-1" d="M744.77,389.15c39.19-45.05,82.24-83.42,128.27-114.26-22.19-53.7-75.03-91.5-136.74-91.5-49.49,0-93.18,24.39-120.04,61.7,40.91,43.59,75.17,93.71,104.51,152.88l24.01-8.81Z"/>
          <path class="cls-1" d="M726.91,410.28c5.83-7.24,11.83-14.21,17.86-21.13l-24.01,8.81c1.61,3.25,3.37,6.24,4.95,9.55.44.91.84,1.83,1.21,2.77Z"/>
          <path class="cls-1" d="M926.45,322.45l98.24-36.06s-4.7-12.96-13.8-33.39c-30.05,10.62-59.5,24.41-88.08,41.27,1.82,9.2,3.2,18.56,3.64,28.18Z"/>
          <path class="cls-1" d="M736.29,140.73c76.99,0,143.28,45.94,173.27,111.82,26.8-15.21,54.42-28.01,82.71-38.28-33.02-64.42-90.68-155.38-170.77-201.02-151.07,31.5-255.11,82.67-325.71,132.76,32.91,21.19,62.86,43.91,89.97,68.84,34.9-44.99,89.32-74.12,150.53-74.12Z"/>
        </g>
      </g>
    </g>
  </g>
</svg>